<!DOCTYPE svg PUBLIC "-//W3C//DTD SVG 1.1//EN" "http://www.w3.org/Graphics/SVG/1.1/DTD/svg11.dtd">
<!-- Uploaded to: SVG Repo, www.svgrepo.com, Transformed by: SVG Repo Mixer Tools -->
<svg width="800px" height="800px" viewBox="-0.58 -0.58 6.98 6.98" xmlns:dc="http://purl.org/dc/elements/1.1/" xmlns:cc="http://creativecommons.org/ns#" xmlns:rdf="http://www.w3.org/1999/02/22-rdf-syntax-ns#" xmlns="http://www.w3.org/2000/svg" id="svg8" version="1.1" fill="#000000" transform="rotate(180)">
<g id="SVGRepo_bgCarrier" stroke-width="0">
<path transform="translate(-0.58, -0.58), scale(0.21812500000000004)" d="M16,26.83307957649231C18.651385888725315,26.613192183767218,21.593194933977575,28.22315460486346,23.785256277954513,26.715485987211295C25.98218253414902,25.204471352122983,26.508343139757407,22.135418683067794,26.697166993180442,19.475720249976863C26.85715995458677,17.222122407099256,25.521379447661154,15.280371762875024,24.74778595452237,13.157672044946107C24.010146729973645,11.133628942502408,23.91397788488757,8.760181443524118,22.280260755363845,7.355962640472571C20.593121964320574,5.905826646347761,18.209450722887023,5.378627733475002,16,5.638741564005613C13.92265533985627,5.8833028349518335,12.676325967115545,8.006457952455666,10.7094409019581,8.718170108270849C7.470230865754239,9.890269687877085,1.7127869558237954,7.747318206718619,0.9129942425967776,11.097934672240434C0.08020251137796808,14.5867957744047,7.132745994735663,15.112859676850546,8.380294849594694,18.475792282854C9.531186563065836,21.578172806179186,4.98699096042926,25.64437921708659,7.216397873243546,28.089591163879724C9.259105440079157,30.3300313982405,12.97850443336773,27.08366127608663,16,26.83307957649231" fill="#51c2ba" strokewidth="0"/>
</g>
<g id="SVGRepo_tracerCarrier" stroke-linecap="round" stroke-linejoin="round"/>
<g id="SVGRepo_iconCarrier"> <metadata id="metadata5"> <rdf:rdf> <cc:work> <dc:format>image/svg+xml</dc:format> <dc:type rdf:resource="http://purl.org/dc/dcmitype/StillImage"/> <dc:title/> <dc:date>2021</dc:date> <dc:creator> <cc:agent> <dc:title>Timothée Giet</dc:title> </cc:agent> </dc:creator> <cc:license rdf:resource="http://creativecommons.org/licenses/by-sa/4.0/"/> </cc:work> <cc:license rdf:about="http://creativecommons.org/licenses/by-sa/4.0/"> <cc:permits rdf:resource="http://creativecommons.org/ns#Reproduction"/> <cc:permits rdf:resource="http://creativecommons.org/ns#Distribution"/> <cc:requires rdf:resource="http://creativecommons.org/ns#Notice"/> <cc:requires rdf:resource="http://creativecommons.org/ns#Attribution"/> <cc:permits rdf:resource="http://creativecommons.org/ns#DerivativeWorks"/> <cc:requires rdf:resource="http://creativecommons.org/ns#ShareAlike"/> </cc:license> </rdf:rdf> </metadata> <g transform="translate(0 -291.18)" id="layer1"> <path id="rect975" transform="matrix(.26458 0 0 .26458 0 291.18)" d="M11 1v4a6 6 0 1 1 0 12v4h10V1z" style="opacity:1;vector-effect:none;fill:#002b80;fill-opacity:1;stroke:none;stroke-width:1.99999988;stroke-linecap:butt;stroke-linejoin:bevel;stroke-miterlimit:4;stroke-dasharray:none;stroke-dashoffset:3.20000005;stroke-opacity:1"/> <path id="path979-5" d="M2.91 292.502a1.587 1.587 0 0 0-1.587 1.588 1.587 1.587 0 0 0 1.587 1.587z" style="opacity:1;vector-effect:none;fill:#002b80;fill-opacity:1;stroke:none;stroke-width:.52916664;stroke-linecap:butt;stroke-linejoin:bevel;stroke-miterlimit:4;stroke-dasharray:none;stroke-dashoffset:3.20000005;stroke-opacity:1"/> </g> </g>
</svg>